<?xml version="1.0" encoding="UTF-8"?>
<svg version="1.1" xmlns="http://www.w3.org/2000/svg" width="85" height="85">
<path d="M0 0 C1.13637609 4.02377194 0.9020261 6.07770458 -0.9375 9.8125 C-1.50791016 10.99779297 -1.50791016 10.99779297 -2.08984375 12.20703125 C-2.39019531 12.79871094 -2.69054688 13.39039062 -3 14 C-6.0335742 13.50647823 -9.05473642 12.98920592 -12.0703125 12.39453125 C-13.58238281 12.10642578 -13.58238281 12.10642578 -15.125 11.8125 C-16.64480469 11.51279297 -16.64480469 11.51279297 -18.1953125 11.20703125 C-21.21355722 10.98423603 -22.49220386 11.38613119 -25 13 C-25.12213894 15.34148231 -25.12213894 15.34148231 -24 18 C-20.69872369 20.84688716 -16.62103261 22.67210687 -12.7890625 24.6953125 C4.25576505 33.70527855 4.25576505 33.70527855 7 42 C7.80157284 48.18742182 7.76871286 53.81801981 4 59 C-3.08491035 66.54095056 -9.09298816 69.10682223 -19.375 69.4375 C-29.1406268 69.21445192 -38.08470741 66.22223769 -45 59 C-45.9296875 57.140625 -45.9296875 57.140625 -46 55 C-44.56640625 52.421875 -44.56640625 52.421875 -42.5625 49.75 C-41.90378906 48.85796875 -41.24507812 47.9659375 -40.56640625 47.046875 C-40.04949219 46.37140625 -39.53257813 45.6959375 -39 45 C-34.44248576 45.74549558 -31.83075393 47.4201045 -28 50 C-23.55697097 51.89065065 -19.82068101 52.37082162 -15 52 C-14.34 51.34 -13.68 50.68 -13 50 C-12.93727826 46.99757641 -12.93727826 46.99757641 -14 44 C-16.12247002 42.18637734 -16.12247002 42.18637734 -18.91796875 41 C-19.92537109 40.505 -20.93277344 40.01 -21.97070312 39.5 C-23.03224609 39.005 -24.09378906 38.51 -25.1875 38 C-40.86934673 30.55185016 -40.86934673 30.55185016 -44.375 23.0625 C-45.70616738 16.53977985 -45.39967556 10.77944845 -42 5 C-31.08607137 -7.53626937 -14.20474856 -5.92525824 0 0 Z " fill="#FEFEFE" transform="translate(62,13)"/>
</svg>
